<svg id="visual" viewBox="0 0 900 200" width="900" height="200" xmlns="http://www.w3.org/2000/svg" xmlns:xlink="http://www.w3.org/1999/xlink" version="1.1"><path d="M0 39L21.5 42.3C43 45.7 86 52.3 128.8 56.3C171.7 60.3 214.3 61.7 257.2 64.2C300 66.7 343 70.3 385.8 70.5C428.7 70.7 471.3 67.3 514.2 62.7C557 58 600 52 642.8 55.7C685.7 59.3 728.3 72.7 771.2 75.7C814 78.7 857 71.3 878.5 67.7L900 64L900 201L878.5 201C857 201 814 201 771.2 201C728.3 201 685.7 201 642.8 201C600 201 557 201 514.2 201C471.3 201 428.7 201 385.8 201C343 201 300 201 257.2 201C214.3 201 171.7 201 128.8 201C86 201 43 201 21.5 201L0 201Z" fill="#81e0e6"></path><path d="M0 75L21.5 75C43 75 86 75 128.8 75.8C171.7 76.7 214.3 78.3 257.2 83.5C300 88.7 343 97.3 385.8 95.3C428.7 93.3 471.3 80.7 514.2 79.5C557 78.3 600 88.7 642.8 93C685.7 97.3 728.3 95.7 771.2 90C814 84.3 857 74.7 878.5 69.8L900 65L900 201L878.5 201C857 201 814 201 771.2 201C728.3 201 685.7 201 642.8 201C600 201 557 201 514.2 201C471.3 201 428.7 201 385.8 201C343 201 300 201 257.2 201C214.3 201 171.7 201 128.8 201C86 201 43 201 21.5 201L0 201Z" fill="#60ccec"></path><path d="M0 131L21.5 125.2C43 119.3 86 107.7 128.8 106.3C171.7 105 214.3 114 257.2 118C300 122 343 121 385.8 119.3C428.7 117.7 471.3 115.3 514.2 117.8C557 120.3 600 127.7 642.8 127.2C685.7 126.7 728.3 118.3 771.2 112.3C814 106.3 857 102.7 878.5 100.8L900 99L900 201L878.5 201C857 201 814 201 771.2 201C728.3 201 685.7 201 642.8 201C600 201 557 201 514.2 201C471.3 201 428.7 201 385.8 201C343 201 300 201 257.2 201C214.3 201 171.7 201 128.8 201C86 201 43 201 21.5 201L0 201Z" fill="#5ab5ed"></path><path d="M0 128L21.5 130.8C43 133.7 86 139.3 128.8 144.5C171.7 149.7 214.3 154.3 257.2 153.8C300 153.3 343 147.7 385.8 141.8C428.7 136 471.3 130 514.2 128.2C557 126.3 600 128.7 642.8 130.7C685.7 132.7 728.3 134.3 771.2 134.3C814 134.3 857 132.7 878.5 131.8L900 131L900 201L878.5 201C857 201 814 201 771.2 201C728.3 201 685.7 201 642.8 201C600 201 557 201 514.2 201C471.3 201 428.7 201 385.8 201C343 201 300 201 257.2 201C214.3 201 171.7 201 128.8 201C86 201 43 201 21.5 201L0 201Z" fill="#719be4"></path><path d="M0 178L21.5 177.7C43 177.3 86 176.7 128.8 177.3C171.7 178 214.3 180 257.2 177.5C300 175 343 168 385.8 164.7C428.7 161.3 471.3 161.7 514.2 161.8C557 162 600 162 642.8 165.3C685.7 168.7 728.3 175.3 771.2 175.7C814 176 857 170 878.5 167L900 164L900 201L878.5 201C857 201 814 201 771.2 201C728.3 201 685.7 201 642.8 201C600 201 557 201 514.2 201C471.3 201 428.7 201 385.8 201C343 201 300 201 257.2 201C214.3 201 171.7 201 128.8 201C86 201 43 201 21.5 201L0 201Z" fill="#917dcd"></path></svg>