<svg id="visual" viewBox="0 0 900 100" width="900" height="100" xmlns="http://www.w3.org/2000/svg" xmlns:xlink="http://www.w3.org/1999/xlink" version="1.1"><path d="M0 23L21.5 24.8C43 26.7 86 30.3 128.8 29.3C171.7 28.3 214.3 22.7 257.2 19.5C300 16.3 343 15.7 385.8 15.8C428.7 16 471.3 17 514.2 21.5C557 26 600 34 642.8 38.5C685.7 43 728.3 44 771.2 42.8C814 41.7 857 38.3 878.5 36.7L900 35L900 101L878.5 101C857 101 814 101 771.2 101C728.3 101 685.7 101 642.8 101C600 101 557 101 514.2 101C471.3 101 428.7 101 385.8 101C343 101 300 101 257.2 101C214.3 101 171.7 101 128.8 101C86 101 43 101 21.5 101L0 101Z" fill="#92d1ec"></path><path d="M0 46L21.5 46.2C43 46.3 86 46.7 128.8 46.3C171.7 46 214.3 45 257.2 43.2C300 41.3 343 38.7 385.8 38.2C428.7 37.7 471.3 39.3 514.2 43C557 46.7 600 52.3 642.8 54.3C685.7 56.3 728.3 54.7 771.2 54.2C814 53.7 857 54.3 878.5 54.7L900 55L900 101L878.5 101C857 101 814 101 771.2 101C728.3 101 685.7 101 642.8 101C600 101 557 101 514.2 101C471.3 101 428.7 101 385.8 101C343 101 300 101 257.2 101C214.3 101 171.7 101 128.8 101C86 101 43 101 21.5 101L0 101Z" fill="#72bbf3"></path><path d="M0 51L21.5 54.5C43 58 86 65 128.8 69C171.7 73 214.3 74 257.2 72.7C300 71.3 343 67.7 385.8 67.7C428.7 67.7 471.3 71.3 514.2 70.3C557 69.3 600 63.7 642.8 60.7C685.7 57.7 728.3 57.3 771.2 59.8C814 62.3 857 67.7 878.5 70.3L900 73L900 101L878.5 101C857 101 814 101 771.2 101C728.3 101 685.7 101 642.8 101C600 101 557 101 514.2 101C471.3 101 428.7 101 385.8 101C343 101 300 101 257.2 101C214.3 101 171.7 101 128.8 101C86 101 43 101 21.5 101L0 101Z" fill="#749ff4"></path><path d="M0 78L21.5 79.3C43 80.7 86 83.3 128.8 82.2C171.7 81 214.3 76 257.2 73.7C300 71.3 343 71.7 385.8 72C428.7 72.3 471.3 72.7 514.2 73.7C557 74.7 600 76.3 642.8 78.2C685.7 80 728.3 82 771.2 82C814 82 857 80 878.5 79L900 78L900 101L878.5 101C857 101 814 101 771.2 101C728.3 101 685.7 101 642.8 101C600 101 557 101 514.2 101C471.3 101 428.7 101 385.8 101C343 101 300 101 257.2 101C214.3 101 171.7 101 128.8 101C86 101 43 101 21.5 101L0 101Z" fill="#957ce5"></path></svg>