<svg id="visual" viewBox="0 0 900 600" width="900" height="600" xmlns="http://www.w3.org/2000/svg" xmlns:xlink="http://www.w3.org/1999/xlink" version="1.1"><path d="M0 484L25 481.2C50 478.3 100 472.7 150 472.5C200 472.3 250 477.7 300 475.5C350 473.3 400 463.7 450 462.5C500 461.3 550 468.7 600 471C650 473.3 700 470.7 750 466.7C800 462.7 850 457.3 875 454.7L900 452L900 601L875 601C850 601 800 601 750 601C700 601 650 601 600 601C550 601 500 601 450 601C400 601 350 601 300 601C250 601 200 601 150 601C100 601 50 601 25 601L0 601Z" fill="#81e0e6"></path><path d="M0 480L25 485.2C50 490.3 100 500.7 150 500.7C200 500.7 250 490.3 300 487C350 483.7 400 487.3 450 492C500 496.7 550 502.3 600 503.5C650 504.7 700 501.3 750 495.5C800 489.7 850 481.3 875 477.2L900 473L900 601L875 601C850 601 800 601 750 601C700 601 650 601 600 601C550 601 500 601 450 601C400 601 350 601 300 601C250 601 200 601 150 601C100 601 50 601 25 601L0 601Z" fill="#65d0eb"></path><path d="M0 491L25 493.7C50 496.3 100 501.7 150 506C200 510.3 250 513.7 300 514.8C350 516 400 515 450 516.7C500 518.3 550 522.7 600 519C650 515.3 700 503.7 750 503.7C800 503.7 850 515.3 875 521.2L900 527L900 601L875 601C850 601 800 601 750 601C700 601 650 601 600 601C550 601 500 601 450 601C400 601 350 601 300 601C250 601 200 601 150 601C100 601 50 601 25 601L0 601Z" fill="#58bfed"></path><path d="M0 535L25 532.2C50 529.3 100 523.7 150 523C200 522.3 250 526.7 300 531.5C350 536.3 400 541.7 450 539.8C500 538 550 529 600 529.5C650 530 700 540 750 541.5C800 543 850 536 875 532.5L900 529L900 601L875 601C850 601 800 601 750 601C700 601 650 601 600 601C550 601 500 601 450 601C400 601 350 601 300 601C250 601 200 601 150 601C100 601 50 601 25 601L0 601Z" fill="#61abeb"></path><path d="M0 538L25 540C50 542 100 546 150 550.5C200 555 250 560 300 558C350 556 400 547 450 546.7C500 546.3 550 554.7 600 554.7C650 554.7 700 546.3 750 546.2C800 546 850 554 875 558L900 562L900 601L875 601C850 601 800 601 750 601C700 601 650 601 600 601C550 601 500 601 450 601C400 601 350 601 300 601C250 601 200 601 150 601C100 601 50 601 25 601L0 601Z" fill="#7895e1"></path><path d="M0 561L25 563.2C50 565.3 100 569.7 150 572.2C200 574.7 250 575.3 300 576.5C350 577.7 400 579.3 450 580.3C500 581.3 550 581.7 600 579C650 576.3 700 570.7 750 567.8C800 565 850 565 875 565L900 565L900 601L875 601C850 601 800 601 750 601C700 601 650 601 600 601C550 601 500 601 450 601C400 601 350 601 300 601C250 601 200 601 150 601C100 601 50 601 25 601L0 601Z" fill="#917dcd"></path></svg>