<?xml version="1.0" standalone="no"?>
<!DOCTYPE svg PUBLIC "-//W3C//DTD SVG 20010904//EN"
 "http://www.w3.org/TR/2001/REC-SVG-20010904/DTD/svg10.dtd">
<svg version="1.0" xmlns="http://www.w3.org/2000/svg"
 width="2560.000000pt" height="2560.000000pt" viewBox="0 0 2560.000000 2560.000000"
 preserveAspectRatio="xMidYMid meet">

<g transform="translate(0.000000,2560.000000) scale(0.100000,-0.100000)"
fill="#000000" stroke="none">
<path d="M12010 25586 c0 -10 -37 -16 -162 -25 -291 -21 -433 -33 -439 -37 -4
-2 -94 -13 -200 -24 -105 -12 -196 -23 -200 -26 -5 -3 -80 -14 -166 -25 -87
-10 -171 -23 -188 -29 -16 -5 -78 -16 -136 -24 -59 -9 -117 -20 -131 -25 -13
-5 -60 -14 -104 -21 -43 -6 -99 -17 -124 -25 -25 -8 -76 -19 -115 -25 -38 -5
-104 -19 -145 -30 -41 -10 -104 -26 -140 -34 -117 -28 -154 -38 -230 -61 -41
-13 -95 -26 -120 -29 -25 -3 -70 -15 -100 -25 -30 -10 -98 -31 -150 -46 -117
-34 -239 -72 -305 -95 -72 -25 -171 -58 -240 -80 -33 -10 -98 -33 -145 -50
-47 -17 -107 -40 -135 -50 -27 -10 -63 -25 -80 -34 -16 -9 -41 -16 -55 -16
-14 0 -43 -11 -65 -25 -22 -13 -47 -25 -56 -25 -9 0 -37 -11 -63 -25 -26 -14
-52 -25 -57 -25 -10 0 -114 -42 -194 -79 -22 -11 -51 -22 -65 -26 -31 -9 -163
-70 -485 -225 -93 -45 -177 -85 -185 -90 -8 -5 -53 -28 -100 -51 -71 -35 -258
-136 -360 -193 -135 -77 -211 -121 -245 -142 -22 -13 -51 -30 -65 -36 -22 -11
-62 -36 -142 -90 -15 -10 -29 -18 -32 -18 -7 0 -201 -124 -281 -180 -16 -12
-55 -38 -86 -58 -31 -20 -83 -55 -115 -76 -33 -22 -66 -44 -76 -50 -80 -53
-359 -256 -433 -316 -51 -41 -120 -94 -153 -118 -33 -23 -71 -53 -84 -65 -13
-12 -46 -38 -72 -57 -27 -19 -72 -56 -100 -81 -28 -25 -82 -71 -121 -103 -317
-261 -812 -731 -1116 -1061 -35 -38 -69 -74 -75 -80 -46 -43 -265 -292 -370
-420 -32 -38 -78 -93 -103 -121 -25 -28 -62 -73 -81 -100 -19 -27 -40 -53 -46
-59 -6 -5 -35 -41 -65 -80 -74 -98 -107 -141 -159 -206 -25 -31 -74 -98 -110
-149 -36 -51 -86 -122 -112 -159 -43 -60 -136 -194 -180 -260 -10 -14 -27 -42
-38 -61 -20 -33 -89 -136 -127 -190 -10 -14 -25 -41 -34 -60 -9 -19 -23 -41
-32 -49 -10 -7 -17 -18 -17 -23 0 -5 -8 -21 -18 -36 -54 -80 -79 -120 -90
-142 -6 -14 -23 -43 -37 -65 -13 -22 -36 -60 -50 -85 -14 -25 -39 -67 -55 -95
-16 -27 -38 -68 -49 -90 -11 -22 -44 -80 -71 -130 -46 -81 -68 -123 -116 -220
-8 -16 -21 -41 -29 -55 -21 -39 -72 -141 -89 -180 -9 -19 -20 -42 -25 -50 -18
-28 -110 -225 -166 -355 -31 -71 -67 -153 -81 -180 -13 -28 -24 -55 -24 -61 0
-13 -42 -112 -69 -164 -10 -19 -22 -51 -26 -70 -4 -19 -16 -50 -27 -68 -11
-18 -24 -48 -28 -65 -5 -18 -17 -54 -28 -82 -11 -27 -25 -66 -32 -85 -7 -19
-26 -71 -42 -115 -16 -44 -38 -107 -48 -140 -28 -87 -59 -176 -74 -210 -8 -16
-17 -46 -21 -65 -3 -19 -17 -66 -30 -105 -12 -38 -35 -113 -50 -165 -15 -52
-35 -120 -45 -150 -17 -52 -34 -118 -67 -255 -8 -33 -22 -89 -33 -125 -10 -36
-24 -94 -30 -128 -6 -35 -16 -76 -22 -90 -5 -15 -18 -70 -28 -122 -37 -196
-52 -267 -70 -350 -11 -47 -24 -121 -30 -165 -6 -44 -15 -93 -21 -110 -5 -16
-18 -101 -28 -188 -11 -86 -22 -161 -25 -166 -3 -4 -14 -95 -26 -200 -11 -106
-22 -196 -24 -200 -4 -6 -16 -148 -37 -438 -9 -126 -15 -163 -25 -163 -12 0
-14 -128 -14 -790 0 -657 2 -790 14 -790 14 0 19 -47 36 -325 8 -137 23 -268
66 -595 44 -327 53 -391 68 -465 8 -44 22 -118 31 -165 38 -215 57 -308 71
-348 7 -23 14 -55 14 -71 0 -15 9 -61 20 -102 11 -41 25 -99 31 -129 5 -30 18
-84 29 -120 26 -88 60 -222 76 -297 7 -34 20 -75 28 -92 9 -16 16 -39 16 -51
0 -19 19 -83 75 -255 13 -38 26 -83 30 -100 4 -16 13 -43 20 -60 7 -16 21 -57
30 -90 9 -33 21 -65 25 -70 5 -6 14 -33 20 -60 6 -27 17 -63 25 -80 8 -16 21
-50 29 -75 13 -40 36 -102 91 -250 9 -25 23 -58 30 -75 21 -46 64 -155 82
-205 8 -25 22 -54 29 -65 8 -11 14 -26 14 -34 0 -14 43 -112 80 -183 11 -20
20 -42 20 -49 0 -10 42 -102 125 -274 14 -27 31 -66 40 -85 8 -19 19 -42 24
-50 6 -8 28 -53 51 -100 22 -47 74 -148 115 -225 41 -77 83 -158 95 -180 11
-22 35 -65 52 -95 17 -30 39 -71 49 -90 11 -19 44 -75 74 -125 30 -49 63 -108
73 -130 11 -22 27 -46 36 -54 9 -7 16 -17 16 -22 0 -5 21 -41 47 -81 26 -40
53 -84 60 -98 14 -27 34 -57 159 -245 15 -22 70 -104 100 -149 10 -16 28 -41
39 -56 11 -15 42 -60 69 -100 26 -40 54 -80 62 -89 20 -25 66 -86 94 -126 14
-20 48 -65 75 -100 28 -35 66 -85 85 -112 46 -63 46 -63 137 -174 43 -53 89
-111 103 -130 14 -18 48 -58 75 -89 28 -31 97 -112 155 -181 253 -300 727
-790 1020 -1053 36 -33 94 -87 130 -120 36 -34 107 -98 159 -141 204 -172 232
-196 249 -211 15 -13 48 -39 184 -146 19 -15 46 -37 60 -50 15 -13 45 -36 69
-53 23 -16 79 -59 125 -95 144 -111 260 -196 434 -314 69 -46 148 -100 175
-119 95 -64 280 -184 304 -197 14 -7 30 -17 35 -22 6 -5 36 -24 66 -43 30 -19
65 -41 77 -50 13 -9 53 -32 90 -52 38 -19 79 -44 92 -54 13 -11 29 -19 36 -19
7 0 30 -12 51 -26 44 -30 141 -84 269 -150 50 -26 113 -59 140 -75 28 -15 111
-57 185 -94 74 -36 142 -71 150 -76 8 -5 31 -16 50 -25 19 -9 58 -26 85 -39
28 -13 75 -34 105 -48 30 -14 99 -46 153 -71 54 -25 100 -46 103 -46 6 0 129
-51 189 -79 22 -10 54 -23 70 -29 31 -11 137 -53 190 -76 17 -7 50 -20 75 -29
25 -8 77 -27 115 -42 39 -15 95 -36 125 -46 30 -11 69 -26 85 -34 17 -8 46
-17 65 -20 20 -3 51 -13 70 -24 19 -10 53 -21 75 -25 22 -4 58 -16 80 -25 22
-10 67 -25 100 -34 33 -8 98 -27 145 -42 47 -15 103 -32 125 -37 22 -6 69 -21
105 -34 36 -12 85 -25 110 -29 25 -3 72 -14 105 -25 65 -21 142 -41 275 -70
47 -11 108 -26 135 -34 28 -8 88 -20 135 -26 46 -7 93 -16 103 -22 10 -5 46
-13 80 -19 34 -5 103 -18 152 -28 122 -27 333 -62 430 -72 44 -5 115 -16 157
-24 42 -8 126 -20 185 -26 59 -5 158 -17 218 -25 146 -20 157 -21 398 -35 162
-9 207 -15 207 -25 0 -12 131 -14 790 -14 650 0 790 2 790 13 0 10 47 16 203
26 111 7 274 21 362 32 89 10 207 23 264 29 56 5 137 17 179 25 42 8 113 19
157 24 98 10 308 45 430 71 50 11 122 24 161 30 40 5 84 14 99 20 15 6 67 17
116 25 48 7 96 18 106 23 10 5 59 17 108 27 50 9 116 26 147 36 32 10 69 19
83 19 14 0 58 11 97 25 39 14 83 25 97 25 14 0 45 9 69 20 23 10 69 24 101 30
32 6 73 17 90 26 16 8 52 19 78 23 26 5 68 18 93 29 25 12 55 22 68 22 13 0
37 7 55 17 18 9 61 24 97 34 76 20 143 43 221 76 31 12 62 23 69 23 6 0 26 7
43 15 18 8 57 23 87 34 30 10 87 31 125 46 39 15 97 37 130 50 33 12 78 30
100 40 22 9 65 28 95 40 30 13 107 45 170 73 63 27 149 64 190 82 75 33 448
211 485 232 11 6 79 42 150 79 72 37 155 81 185 98 123 68 138 77 176 96 21
10 46 25 54 31 8 7 38 24 65 39 72 40 95 53 145 85 25 16 63 39 85 51 22 12
70 42 106 65 36 24 69 44 72 44 2 0 68 42 145 94 77 52 151 100 165 108 22 12
48 29 134 90 17 13 66 47 110 77 43 30 99 70 125 90 26 20 63 47 83 61 35 24
94 68 125 93 9 7 54 41 100 77 47 35 121 94 165 130 44 36 107 87 140 112 33
26 74 60 91 75 33 29 50 43 149 127 128 108 282 247 445 401 52 50 126 120
164 155 153 145 654 678 756 806 14 17 66 78 115 136 101 118 250 303 308 381
41 56 86 114 102 132 15 16 68 86 90 119 11 16 30 43 43 60 12 17 33 47 47 66
13 19 49 69 80 110 30 41 62 89 71 105 9 17 34 51 55 77 22 26 39 51 39 56 0
5 12 25 28 45 15 20 41 59 57 87 17 28 49 78 73 110 23 33 42 63 42 66 0 4 20
37 44 73 23 36 53 84 65 106 12 22 35 60 51 85 32 50 45 73 85 145 15 28 32
57 39 65 6 8 21 33 31 54 11 22 30 58 43 80 12 23 36 66 53 96 17 30 61 114
98 185 37 72 72 139 78 150 13 24 154 318 189 393 13 29 35 76 48 105 13 28
38 86 56 127 17 41 39 93 49 115 55 120 182 436 222 555 11 30 23 64 29 75 10
22 40 106 83 235 8 25 20 59 25 75 6 17 18 50 25 75 8 25 19 59 25 75 5 17 22
68 36 115 14 47 37 121 50 165 14 44 28 96 32 115 3 19 13 48 21 63 8 16 19
56 24 90 5 34 18 89 29 122 30 96 68 246 76 300 4 28 15 72 25 98 11 26 19 62
19 80 0 18 9 69 21 113 11 43 25 106 30 139 5 33 18 101 29 150 26 123 61 333
71 430 5 44 16 115 24 157 8 42 20 123 25 179 6 57 19 175 29 264 11 88 25
251 32 363 10 155 16 202 26 202 11 0 13 140 13 790 0 650 -2 790 -13 790 -10
0 -16 47 -26 203 -7 111 -21 274 -32 362 -10 89 -23 207 -29 264 -5 56 -17
137 -25 179 -8 42 -19 113 -24 157 -10 99 -46 312 -71 425 -10 47 -22 108 -25
135 -4 28 -18 92 -31 144 -13 51 -24 108 -24 126 0 19 -5 46 -11 62 -7 15 -22
73 -34 128 -32 138 -53 222 -69 275 -8 25 -19 70 -26 100 -6 30 -18 75 -26
100 -9 25 -20 61 -25 80 -6 19 -21 73 -35 120 -13 47 -36 119 -49 160 -14 41
-25 84 -25 95 0 11 -7 30 -15 42 -8 12 -21 47 -29 80 -8 32 -21 72 -30 89 -9
17 -20 52 -25 78 -4 25 -13 51 -19 58 -5 7 -17 36 -26 63 -24 77 -98 279 -121
330 -25 55 -66 159 -80 200 -7 22 -20 54 -29 70 -8 17 -29 64 -46 105 -38 93
-72 169 -125 285 -83 177 -94 200 -109 235 -9 19 -20 42 -25 50 -5 8 -39 76
-76 150 -36 74 -70 142 -75 150 -5 8 -17 31 -25 50 -9 19 -27 55 -41 80 -13
25 -46 84 -72 131 -113 208 -146 265 -157 279 -7 8 -29 46 -49 84 -20 37 -44
79 -54 91 -9 13 -30 47 -47 75 -16 28 -62 99 -100 158 -72 109 -134 207 -170
267 -18 29 -132 193 -217 310 -143 197 -134 184 -290 389 -26 33 -53 68 -60
76 -23 28 -123 154 -153 195 -16 22 -52 65 -80 95 -27 31 -95 110 -150 175
-238 284 -638 702 -935 976 -74 68 -170 158 -215 199 -44 41 -134 120 -199
175 -66 55 -145 123 -176 150 -31 28 -71 61 -89 75 -19 14 -77 60 -130 103
-110 90 -110 90 -174 137 -26 19 -77 58 -112 85 -35 28 -80 61 -100 75 -39 27
-101 73 -126 94 -9 8 -49 36 -89 62 -40 27 -87 59 -104 72 -82 59 -106 76
-199 138 -96 64 -140 92 -177 114 -19 11 -54 33 -77 48 -83 53 -166 102 -173
102 -4 0 -14 7 -21 16 -8 9 -32 25 -54 35 -22 11 -62 33 -90 50 -57 36 -102
63 -160 94 -22 12 -65 37 -95 55 -30 18 -73 41 -95 52 -22 10 -80 41 -130 68
-49 28 -106 57 -125 65 -19 9 -42 20 -50 25 -18 12 -247 124 -390 192 -58 27
-126 60 -151 74 -26 13 -54 24 -63 24 -10 0 -34 9 -54 20 -63 33 -168 80 -179
80 -6 0 -34 11 -61 25 -28 14 -55 25 -60 25 -6 0 -32 11 -58 25 -26 14 -53 25
-61 25 -8 0 -33 9 -57 19 -43 20 -85 36 -186 73 -30 11 -60 24 -66 29 -6 5
-39 16 -74 25 -35 9 -71 20 -79 25 -21 12 -119 46 -206 71 -38 10 -84 26 -100
33 -17 8 -51 18 -75 24 -25 5 -59 17 -76 25 -17 9 -54 20 -83 26 -28 5 -62 15
-74 22 -12 6 -49 17 -82 24 -33 7 -87 22 -120 32 -62 20 -106 33 -210 59 -33
8 -78 19 -100 25 -22 5 -76 18 -120 28 -74 17 -128 30 -320 76 -38 9 -97 21
-130 26 -33 6 -100 18 -150 29 -49 11 -124 24 -165 29 -41 6 -92 15 -112 21
-21 5 -102 18 -180 29 -324 43 -380 50 -538 70 -91 12 -232 25 -315 30 -278
17 -325 22 -325 36 0 12 -133 14 -790 14 -662 0 -790 -2 -790 -14z m1305
-3267 c61 -6 187 -14 282 -19 95 -6 214 -17 265 -26 51 -9 143 -20 203 -25 61
-5 155 -18 210 -28 55 -11 138 -25 184 -31 46 -6 95 -16 109 -21 14 -6 60 -14
101 -19 42 -6 108 -19 146 -29 39 -11 102 -26 140 -35 39 -8 88 -20 110 -25
55 -14 154 -38 254 -62 46 -11 92 -24 103 -30 18 -9 57 -21 237 -69 41 -11 79
-24 85 -30 7 -5 34 -14 60 -20 27 -6 68 -20 92 -30 23 -11 49 -20 56 -20 7 0
37 -11 66 -25 30 -14 63 -25 73 -25 11 0 42 -11 69 -25 27 -14 55 -25 62 -25
6 0 30 -9 52 -19 42 -20 119 -51 191 -78 22 -8 81 -33 130 -57 50 -23 124 -57
165 -75 105 -46 182 -81 200 -92 8 -5 31 -16 50 -24 19 -9 42 -20 50 -25 8 -5
49 -26 90 -46 81 -40 282 -151 432 -238 20 -11 65 -37 100 -57 35 -20 106 -64
158 -97 208 -135 404 -265 417 -277 6 -5 27 -20 45 -33 18 -12 62 -44 97 -70
35 -26 83 -60 106 -77 89 -62 407 -319 464 -374 9 -9 70 -61 136 -116 65 -55
133 -113 150 -130 180 -173 361 -352 468 -464 233 -244 603 -687 757 -906 14
-20 36 -51 50 -70 14 -19 36 -50 50 -70 14 -20 36 -51 50 -70 48 -65 72 -101
152 -225 44 -69 100 -154 123 -190 49 -75 80 -128 109 -182 12 -21 43 -75 70
-121 75 -126 160 -285 214 -395 7 -15 19 -38 26 -52 43 -79 79 -155 155 -325
37 -83 69 -152 91 -198 13 -27 31 -70 41 -95 9 -26 27 -72 39 -102 12 -30 31
-80 42 -110 10 -30 27 -71 38 -91 11 -20 20 -45 20 -55 0 -11 10 -39 21 -64
12 -25 29 -72 39 -105 24 -80 47 -149 69 -210 20 -54 60 -183 86 -280 9 -33
28 -98 41 -145 14 -47 30 -107 36 -135 6 -27 21 -89 34 -137 13 -48 24 -98 24
-111 0 -14 9 -55 21 -92 11 -36 26 -105 34 -153 8 -48 21 -123 29 -167 38
-194 57 -318 66 -420 6 -60 18 -153 26 -205 9 -52 20 -160 24 -240 5 -80 14
-226 21 -325 16 -233 17 -787 1 -985 -7 -85 -17 -236 -22 -335 -5 -99 -16
-216 -24 -260 -8 -44 -20 -136 -26 -205 -6 -69 -17 -151 -25 -183 -8 -32 -20
-100 -25 -150 -6 -51 -17 -114 -25 -142 -7 -27 -18 -84 -24 -125 -6 -42 -19
-105 -30 -140 -12 -36 -21 -77 -21 -91 0 -15 -9 -55 -20 -90 -10 -35 -22 -84
-26 -109 -3 -25 -16 -79 -29 -120 -31 -101 -70 -236 -83 -285 -25 -96 -55
-191 -62 -200 -5 -5 -15 -37 -24 -70 -8 -33 -25 -78 -36 -100 -11 -21 -20 -51
-20 -65 0 -14 -12 -47 -25 -75 -14 -27 -25 -58 -25 -69 0 -10 -9 -35 -20 -55
-10 -20 -23 -52 -29 -71 -9 -34 -57 -153 -86 -217 -8 -17 -15 -36 -15 -42 0
-6 -11 -32 -24 -58 -25 -50 -44 -92 -96 -208 -17 -38 -40 -88 -50 -110 -11
-22 -27 -56 -35 -75 -19 -43 -41 -86 -60 -120 -16 -28 -103 -198 -123 -238
-16 -33 -22 -45 -114 -205 -40 -70 -80 -140 -88 -155 -8 -15 -25 -41 -38 -59
-12 -17 -22 -35 -22 -40 0 -4 -17 -33 -37 -62 -21 -30 -49 -73 -63 -97 -14
-24 -43 -69 -64 -101 -22 -32 -64 -96 -95 -143 -31 -47 -70 -103 -88 -125 -18
-23 -49 -66 -70 -96 -70 -103 -127 -180 -203 -273 -41 -51 -86 -107 -100 -126
-34 -46 -124 -154 -179 -216 -25 -27 -55 -61 -65 -75 -162 -205 -720 -763
-925 -925 -14 -10 -48 -40 -75 -65 -134 -121 -577 -468 -638 -500 -13 -7 -43
-28 -68 -48 -36 -30 -229 -161 -301 -206 -9 -5 -29 -19 -45 -29 -16 -11 -47
-31 -69 -44 -22 -14 -56 -36 -76 -49 -19 -13 -39 -23 -44 -23 -4 0 -22 -11
-39 -23 -17 -13 -66 -44 -109 -68 -44 -24 -95 -54 -115 -66 -21 -12 -55 -32
-77 -44 -22 -11 -85 -45 -140 -74 -55 -29 -138 -72 -185 -95 -47 -22 -92 -45
-100 -50 -27 -16 -159 -80 -166 -80 -4 0 -37 -14 -73 -31 -36 -16 -84 -38
-106 -48 -22 -10 -65 -30 -95 -44 -30 -14 -68 -30 -85 -36 -16 -5 -64 -24
-105 -42 -85 -36 -184 -74 -250 -96 -25 -8 -63 -23 -85 -33 -22 -10 -56 -21
-75 -25 -19 -4 -48 -13 -65 -21 -64 -28 -217 -78 -355 -114 -25 -7 -65 -19
-90 -27 -25 -8 -63 -19 -85 -25 -22 -5 -74 -20 -115 -33 -41 -13 -97 -26 -123
-30 -27 -3 -67 -13 -90 -21 -23 -8 -67 -19 -97 -23 -30 -5 -93 -18 -140 -29
-101 -26 -228 -50 -325 -64 -38 -5 -104 -16 -145 -24 -84 -17 -162 -27 -325
-44 -60 -6 -128 -16 -150 -22 -41 -10 -81 -13 -678 -44 -338 -18 -360 -18
-710 0 -588 30 -645 34 -654 39 -11 7 -141 25 -273 37 -100 9 -207 27 -420 70
-52 11 -124 23 -160 26 -36 4 -92 15 -124 26 -33 10 -78 21 -100 24 -23 3 -84
16 -136 29 -52 13 -115 28 -140 34 -25 5 -85 22 -135 36 -49 15 -128 37 -175
50 -122 34 -201 59 -315 100 -55 20 -118 41 -140 47 -22 6 -65 21 -96 34 -31
13 -64 24 -72 24 -9 0 -37 11 -63 25 -26 14 -53 25 -61 25 -8 0 -33 9 -57 19
-41 19 -74 32 -178 70 -25 10 -66 27 -90 39 -98 48 -238 112 -244 112 -8 0
-117 50 -169 76 -26 14 -163 87 -213 114 -9 5 -32 16 -49 24 -18 9 -48 23 -65
32 -18 8 -44 22 -58 30 -14 8 -62 36 -108 62 -46 26 -100 57 -120 69 -20 13
-53 31 -72 41 -51 26 -129 72 -175 105 -22 15 -51 35 -65 44 -76 50 -162 105
-215 138 -33 20 -78 50 -100 66 -22 16 -56 41 -75 54 -19 14 -51 36 -70 50
-58 41 -104 74 -130 92 -14 9 -51 38 -82 63 -32 25 -103 81 -159 125 -436 345
-932 814 -1229 1165 -40 47 -98 114 -130 150 -68 77 -325 397 -366 456 -65 93
-178 249 -184 254 -3 3 -44 64 -91 135 -47 72 -120 183 -162 247 -43 65 -105
167 -140 228 -34 61 -71 126 -82 144 -49 83 -119 213 -195 361 -45 88 -86 167
-90 175 -5 8 -34 74 -66 145 -31 72 -76 171 -100 220 -24 50 -49 108 -57 130
-27 74 -49 130 -62 160 -32 70 -68 163 -80 205 -7 25 -22 65 -34 90 -11 25
-21 53 -21 62 0 10 -11 46 -24 80 -45 121 -83 238 -117 363 -19 73 -47 167
-79 270 -11 33 -24 88 -29 122 -5 34 -14 70 -19 80 -5 10 -15 50 -22 88 -7 39
-21 98 -31 133 -10 34 -23 97 -28 140 -6 43 -14 89 -20 104 -5 14 -15 63 -21
109 -6 46 -20 129 -31 184 -10 55 -23 150 -28 210 -5 61 -16 152 -25 203 -9
51 -21 170 -26 265 -5 95 -14 235 -20 312 -14 181 -14 789 0 970 6 77 15 217
20 312 5 94 17 211 25 260 8 48 20 140 25 203 6 63 19 160 30 215 10 55 22
125 25 155 4 30 14 82 22 115 8 33 19 91 24 128 5 38 17 99 27 135 11 37 25
99 32 137 7 39 17 78 22 88 5 10 14 46 19 80 5 34 18 89 28 122 28 87 67 221
86 290 9 33 25 89 34 125 10 36 25 81 33 100 19 45 45 119 67 195 10 33 26 74
35 90 9 17 16 36 16 43 0 11 49 143 84 224 8 18 26 65 41 103 14 39 37 94 50
123 14 29 36 76 49 105 13 28 50 111 82 182 54 121 94 202 228 459 58 113 87
165 119 218 12 20 44 77 71 125 27 48 57 99 66 113 10 14 33 50 52 80 81 129
222 343 266 404 12 17 33 47 47 66 14 19 36 51 50 70 29 41 74 103 95 134 22
32 73 99 85 112 6 6 24 28 40 49 17 21 51 64 76 94 25 31 50 63 55 72 5 9 37
47 70 85 34 38 92 105 129 149 141 167 217 248 487 517 153 152 351 338 440
414 90 76 180 154 201 174 21 19 46 39 55 44 10 5 42 30 73 55 30 25 73 60 94
76 21 17 43 35 50 40 16 15 86 68 119 90 16 11 43 30 60 43 17 12 47 33 66 47
19 14 51 36 70 50 19 14 51 36 70 50 19 13 53 38 75 55 22 16 55 37 74 46 19
8 57 32 85 53 28 21 63 44 78 52 23 13 98 61 168 109 14 10 44 26 65 37 22 11
77 42 122 69 128 76 167 97 323 177 80 41 174 90 210 109 36 19 124 60 195 92
148 66 224 101 276 127 20 10 54 25 75 32 22 8 71 27 109 42 143 56 201 78
255 96 30 11 66 26 80 33 14 8 48 18 75 24 28 6 68 20 90 32 21 11 47 20 57
20 10 0 46 11 80 24 90 34 224 76 245 76 9 0 53 12 98 26 165 53 202 64 262
73 34 5 70 14 80 19 10 5 50 15 88 22 39 7 100 21 137 32 36 10 104 23 150 28
46 6 112 17 148 25 148 33 341 65 425 71 50 3 139 14 199 25 59 10 198 23 308
29 111 6 205 13 211 17 32 20 865 21 1082 2z"/>
<path d="M12560 20830 c-266 -12 -622 -40 -700 -55 -41 -8 -127 -19 -190 -25
-63 -6 -137 -17 -165 -25 -27 -8 -88 -19 -136 -25 -47 -5 -110 -16 -140 -24
-29 -8 -88 -19 -129 -26 -41 -7 -90 -19 -109 -26 -19 -8 -66 -19 -105 -25 -39
-6 -98 -19 -131 -29 -151 -48 -223 -69 -260 -75 -22 -4 -58 -15 -80 -25 -22
-10 -56 -21 -75 -25 -19 -4 -48 -13 -65 -21 -41 -18 -138 -52 -210 -73 -33
-10 -74 -25 -92 -34 -18 -9 -38 -17 -46 -17 -8 0 -35 -11 -61 -25 -26 -14 -52
-25 -58 -25 -16 0 -192 -75 -286 -122 -29 -16 -59 -28 -65 -28 -12 0 -99 -39
-147 -66 -14 -8 -65 -35 -115 -60 -49 -25 -101 -52 -115 -60 -14 -8 -36 -19
-50 -25 -14 -6 -47 -23 -75 -39 -27 -16 -70 -41 -95 -55 -25 -14 -63 -37 -85
-51 -22 -13 -55 -31 -73 -40 -18 -8 -62 -35 -98 -59 -36 -25 -67 -45 -69 -45
-3 0 -40 -24 -84 -52 -44 -29 -101 -66 -128 -83 -26 -16 -70 -46 -98 -68 -27
-21 -93 -68 -146 -105 -140 -98 -410 -316 -636 -513 -147 -129 -527 -512 -645
-650 -57 -66 -123 -144 -148 -173 -25 -29 -58 -69 -75 -91 -16 -21 -60 -75
-97 -120 -36 -45 -105 -135 -152 -201 -47 -65 -103 -141 -123 -169 -21 -27
-50 -67 -64 -90 -14 -22 -34 -53 -45 -69 -38 -58 -124 -192 -144 -226 -12 -19
-31 -51 -43 -71 -12 -20 -47 -81 -77 -134 -30 -54 -67 -118 -81 -144 -15 -25
-59 -109 -98 -186 -39 -77 -77 -151 -85 -165 -16 -30 -44 -91 -86 -185 -17
-38 -39 -86 -49 -105 -10 -19 -23 -51 -29 -70 -6 -19 -27 -73 -47 -120 -38
-87 -58 -140 -94 -245 -12 -33 -26 -67 -31 -77 -5 -9 -16 -42 -24 -75 -9 -32
-25 -76 -36 -98 -11 -21 -20 -50 -20 -63 0 -13 -9 -42 -19 -65 -11 -23 -24
-68 -30 -99 -5 -32 -17 -70 -24 -85 -8 -16 -18 -48 -22 -73 -4 -25 -15 -65
-25 -90 -10 -25 -23 -81 -30 -123 -6 -43 -17 -93 -25 -110 -7 -18 -18 -66 -25
-107 -6 -41 -18 -95 -25 -120 -8 -25 -19 -88 -25 -140 -6 -52 -17 -117 -25
-145 -8 -27 -19 -102 -25 -165 -6 -63 -17 -146 -25 -185 -8 -38 -19 -149 -25
-245 -6 -96 -15 -215 -21 -265 -13 -117 -13 -773 0 -856 6 -35 15 -150 21
-255 6 -105 15 -216 20 -245 6 -30 15 -94 20 -144 6 -49 18 -130 26 -180 9
-49 21 -117 26 -150 26 -151 86 -436 123 -585 38 -152 48 -188 65 -230 9 -25
20 -65 24 -89 4 -24 15 -65 25 -90 18 -45 41 -112 80 -236 30 -94 60 -177 75
-210 8 -16 22 -50 31 -75 59 -157 73 -190 108 -258 15 -30 27 -59 27 -65 0
-14 19 -55 159 -337 117 -235 122 -245 243 -455 109 -190 118 -205 160 -262
21 -29 38 -55 38 -59 0 -4 17 -31 38 -61 20 -30 48 -72 62 -93 24 -36 54 -79
105 -150 33 -47 70 -98 97 -137 63 -88 299 -378 403 -494 27 -30 83 -93 124
-140 90 -103 463 -473 546 -542 33 -27 80 -68 105 -91 44 -41 204 -175 275
-231 21 -16 45 -37 53 -45 9 -8 26 -22 38 -30 12 -8 58 -42 101 -75 43 -33 85
-64 94 -70 27 -17 102 -67 113 -76 52 -42 106 -79 231 -158 28 -17 57 -36 65
-41 98 -65 187 -120 240 -148 36 -19 72 -40 80 -47 8 -7 53 -33 100 -59 47
-26 92 -51 100 -55 8 -5 31 -16 50 -25 19 -9 42 -20 50 -25 8 -5 31 -16 50
-25 19 -9 64 -31 100 -50 36 -18 148 -70 250 -115 102 -45 202 -91 222 -101
20 -11 44 -20 53 -20 9 0 38 -11 65 -25 27 -14 56 -25 63 -25 8 0 34 -10 58
-23 24 -13 61 -26 82 -30 21 -3 52 -13 70 -22 18 -9 52 -23 77 -30 25 -7 68
-21 95 -30 28 -10 79 -28 115 -40 36 -13 94 -30 130 -38 116 -28 154 -39 218
-63 34 -13 77 -24 96 -24 18 0 68 -9 112 -21 43 -11 121 -29 172 -39 51 -11
96 -21 100 -24 4 -2 60 -12 125 -21 65 -8 129 -20 143 -25 14 -6 92 -17 172
-25 81 -9 161 -20 177 -25 33 -10 363 -34 713 -51 159 -7 285 -8 445 0 328 16
564 32 632 42 33 5 123 16 200 24 77 9 181 24 230 35 50 11 113 22 140 25 28
3 91 15 140 25 50 11 122 26 160 34 159 34 292 66 330 80 22 8 49 15 60 15 19
1 134 33 235 68 25 8 72 21 105 30 33 8 65 19 72 25 7 6 41 19 76 28 88 26
154 49 215 76 29 13 57 24 63 24 5 0 29 9 53 19 23 11 60 26 82 34 89 33 154
61 242 103 51 24 96 44 100 44 8 0 402 199 473 239 26 14 73 41 105 60 33 18
75 42 94 53 72 40 234 138 310 188 167 110 199 132 265 180 19 14 50 36 70 50
37 26 98 71 125 93 8 7 40 30 70 51 63 45 241 190 345 282 39 33 83 72 99 85
99 81 359 330 455 435 30 32 96 102 145 154 150 158 330 371 453 535 60 80 83
112 113 151 14 18 36 49 50 69 14 20 36 51 50 70 53 73 220 325 220 333 0 2
13 22 29 45 41 61 63 97 83 137 10 19 29 53 43 75 14 22 37 60 50 85 14 25 39
68 55 95 16 28 31 57 35 65 3 8 14 31 24 50 49 93 141 279 156 315 10 22 31
69 47 105 16 36 40 88 52 115 13 28 35 76 50 108 14 31 26 64 26 72 0 8 11 38
24 67 54 120 89 212 126 333 10 33 26 83 36 110 9 28 27 79 39 115 12 36 30
97 40 135 10 39 26 99 36 135 30 107 72 275 95 385 8 39 23 111 34 160 11 50
22 115 25 145 4 30 15 89 26 132 10 42 19 96 19 120 1 23 7 86 14 138 30 208
36 264 52 495 28 409 15 1092 -26 1385 -5 36 -17 128 -25 205 -9 77 -25 181
-35 230 -11 50 -25 128 -31 173 -5 46 -14 94 -19 106 -4 12 -15 65 -24 119 -9
53 -23 111 -30 129 -8 18 -19 65 -25 103 -7 39 -20 97 -31 130 -36 113 -60
200 -66 235 -3 19 -16 64 -28 100 -41 115 -57 164 -76 225 -29 95 -51 156 -77
210 -12 28 -23 56 -23 63 0 7 -11 35 -25 62 -14 27 -25 56 -25 65 0 9 -9 33
-20 53 -11 20 -33 71 -50 112 -17 41 -42 96 -55 121 -14 26 -25 53 -25 60 0 8
-39 88 -85 179 -47 91 -92 181 -101 200 -9 19 -20 42 -25 50 -4 8 -29 53 -55
100 -26 47 -52 92 -59 100 -7 8 -28 44 -47 80 -19 36 -42 79 -53 95 -111 176
-283 437 -295 445 -3 3 -24 32 -45 65 -22 33 -67 95 -100 138 -33 43 -67 88
-75 101 -8 12 -22 29 -30 38 -8 8 -28 32 -45 53 -105 133 -138 173 -162 201
-16 16 -55 61 -88 99 -106 123 -309 337 -431 455 -134 130 -413 382 -464 420
-18 14 -76 60 -129 103 -126 102 -178 143 -227 177 -31 21 -93 66 -134 95 -71
51 -114 81 -150 105 -21 14 -64 43 -97 64 -143 96 -248 161 -363 226 -41 23
-91 52 -110 63 -88 51 -150 83 -360 188 -124 61 -243 119 -265 129 -22 11 -70
33 -106 49 -36 17 -69 31 -73 31 -4 0 -32 11 -62 25 -30 14 -60 25 -66 25 -6
0 -25 9 -42 19 -17 10 -47 22 -66 26 -19 4 -44 13 -56 20 -11 7 -43 20 -70 29
-27 9 -94 32 -149 52 -55 19 -118 40 -140 46 -22 6 -56 17 -75 25 -19 7 -66
22 -105 33 -155 41 -192 52 -240 67 -27 9 -86 24 -130 34 -44 9 -109 24 -145
32 -79 18 -303 62 -385 75 -33 6 -100 17 -150 26 -49 8 -130 20 -180 26 -49 5
-114 14 -143 20 -29 5 -137 14 -240 20 -103 6 -221 15 -262 20 -102 13 -470
18 -660 10z m1685 -3708 c28 -7 91 -16 140 -22 50 -6 117 -19 150 -30 33 -11
87 -26 120 -34 54 -13 109 -31 244 -81 24 -8 60 -24 80 -35 20 -11 70 -36 111
-56 112 -53 229 -122 310 -184 39 -30 87 -65 105 -77 72 -48 345 -316 406
-398 16 -22 53 -71 82 -110 47 -63 79 -113 169 -264 16 -25 31 -53 34 -61 4
-8 28 -60 54 -115 26 -56 51 -117 55 -135 4 -19 16 -52 26 -72 11 -21 19 -44
19 -53 0 -8 9 -41 20 -73 20 -55 37 -125 65 -262 35 -176 42 -526 14 -775 -16
-143 -91 -445 -130 -521 -10 -21 -19 -47 -19 -57 0 -11 -9 -36 -19 -56 -10
-20 -42 -84 -70 -143 -29 -58 -65 -126 -81 -150 -16 -23 -30 -46 -30 -50 0
-14 -101 -161 -121 -178 -3 -3 -18 -24 -33 -48 -24 -39 -161 -193 -178 -200
-14 -6 23 -64 94 -146 39 -44 81 -97 94 -116 13 -19 35 -51 49 -70 83 -116 81
-113 137 -210 62 -107 123 -239 176 -380 35 -93 82 -242 82 -260 0 -10 11 -66
24 -126 37 -163 52 -427 37 -652 -14 -208 -27 -307 -47 -364 -8 -22 -14 -49
-14 -59 0 -17 -38 -150 -62 -214 -6 -16 -19 -55 -29 -85 -11 -30 -39 -95 -63
-145 -24 -49 -48 -101 -55 -115 -6 -14 -22 -43 -36 -65 -13 -22 -32 -53 -41
-70 -67 -125 -237 -345 -370 -480 -127 -129 -372 -321 -489 -384 -22 -12 -58
-33 -80 -46 -22 -14 -51 -30 -65 -36 -14 -6 -65 -31 -115 -55 -49 -23 -115
-52 -145 -62 -30 -11 -68 -24 -85 -30 -116 -42 -352 -99 -475 -114 -141 -17
-3567 -24 -3745 -8 -132 12 -284 48 -380 90 -75 32 -177 82 -205 101 -59 39
-145 96 -174 115 -57 39 -205 194 -263 277 -72 101 -94 136 -131 212 -68 138
-91 202 -126 345 -36 149 -38 266 -34 3215 4 3038 3 2973 50 3115 37 115 123
316 148 345 9 11 22 31 28 45 50 103 265 328 400 418 17 12 47 32 65 44 52 36
259 138 279 138 10 0 36 9 56 19 21 11 60 22 87 26 28 4 68 12 90 17 22 6 65
14 95 18 94 13 3657 5 3715 -8z"/>
<path d="M10750 15630 c-13 -8 -15 -129 -18 -967 -2 -527 0 -972 3 -990 12
-69 -137 -63 1701 -63 l1664 0 92 25 c160 42 232 76 376 178 81 57 198 184
247 268 53 91 85 152 85 165 0 7 11 42 24 76 38 96 51 242 38 391 -20 213 -93
391 -228 555 -150 183 -307 277 -579 349 -66 17 -156 18 -1730 20 -1045 2
-1666 -1 -1675 -7z"/>
<path d="M10748 12086 c-17 -12 -18 -71 -18 -988 0 -967 0 -974 20 -996 l21
-22 1612 0 c1065 0 1643 4 1702 11 294 34 553 198 730 464 73 109 130 277 146
432 14 132 -1 321 -31 389 -10 23 -21 57 -25 75 -6 28 -40 99 -96 199 -8 15
-22 34 -30 42 -8 8 -32 37 -54 63 -42 51 -177 168 -235 203 -85 52 -185 94
-305 128 -71 20 -3411 21 -3437 0z"/>
</g>
</svg>
